<mxfile host="app.diagrams.net" modified="2021-11-04T00:52:11.911Z" agent="5.0 (Windows NT 10.0; Win64; x64) AppleWebKit/537.36 (KHTML, like Gecko) Chrome/95.0.4638.54 Safari/537.36" etag="x7CUfxxzLJdm084d90oB" version="15.6.8" type="github" pages="2">
  <diagram id="2-0mmxwdgoLzmRiu0fsF" name="dia a dia">
    <mxGraphModel dx="868" dy="393" grid="1" gridSize="10" guides="1" tooltips="1" connect="1" arrows="1" fold="1" page="1" pageScale="1" pageWidth="827" pageHeight="1169" math="0" shadow="0">
      <root>
        <mxCell id="yNGvCTk1V_gINGqABnyL-0" />
        <mxCell id="yNGvCTk1V_gINGqABnyL-1" parent="yNGvCTk1V_gINGqABnyL-0" />
        <mxCell id="1M6lVSq16ZduSRRAVL-M-0" value="Johnathan power bi" style="rounded=1;whiteSpace=wrap;html=1;fillColor=#d5e8d4;strokeColor=#82b366;" parent="yNGvCTk1V_gINGqABnyL-1" vertex="1">
          <mxGeometry x="10" y="10" width="120" height="60" as="geometry" />
        </mxCell>
        <mxCell id="H3Q4ioqLagcHq7i6xyze-1" value="" style="edgeStyle=orthogonalEdgeStyle;rounded=0;orthogonalLoop=1;jettySize=auto;html=1;" parent="yNGvCTk1V_gINGqABnyL-1" source="1M6lVSq16ZduSRRAVL-M-1" target="H3Q4ioqLagcHq7i6xyze-0" edge="1">
          <mxGeometry relative="1" as="geometry" />
        </mxCell>
        <mxCell id="1M6lVSq16ZduSRRAVL-M-1" value="Juan Camilo Palomares" style="rounded=1;whiteSpace=wrap;html=1;fillColor=#e51400;fontColor=#ffffff;strokeColor=#B20000;" parent="yNGvCTk1V_gINGqABnyL-1" vertex="1">
          <mxGeometry x="10" y="670" width="120" height="60" as="geometry" />
        </mxCell>
        <mxCell id="1M6lVSq16ZduSRRAVL-M-3" value="Revisar correos" style="rounded=1;whiteSpace=wrap;html=1;fillColor=#f8cecc;strokeColor=#b85450;" parent="yNGvCTk1V_gINGqABnyL-1" vertex="1">
          <mxGeometry x="210" y="590" width="120" height="60" as="geometry" />
        </mxCell>
        <mxCell id="1M6lVSq16ZduSRRAVL-M-5" value="Tavo revisar documento" style="rounded=1;whiteSpace=wrap;html=1;fillColor=#d5e8d4;strokeColor=#82b366;" parent="yNGvCTk1V_gINGqABnyL-1" vertex="1">
          <mxGeometry x="10" y="360" width="120" height="60" as="geometry" />
        </mxCell>
        <mxCell id="1M6lVSq16ZduSRRAVL-M-7" value="Trabajar en los nuevos reportes" style="rounded=1;whiteSpace=wrap;html=1;fillColor=#f8cecc;strokeColor=#b85450;" parent="yNGvCTk1V_gINGqABnyL-1" vertex="1">
          <mxGeometry x="10" y="750" width="120" height="60" as="geometry" />
        </mxCell>
        <mxCell id="ueY2YAWh7VIx71RtlcES-0" value="Comunicarme con la gente de sre" style="rounded=1;whiteSpace=wrap;html=1;fillColor=#f8cecc;strokeColor=#b85450;" parent="yNGvCTk1V_gINGqABnyL-1" vertex="1">
          <mxGeometry x="10" y="590" width="120" height="60" as="geometry" />
        </mxCell>
        <object label="comunicarme con Adriana" Nota="Tiene una reunion que la contacte a las 11" id="ueY2YAWh7VIx71RtlcES-1">
          <mxCell style="rounded=1;whiteSpace=wrap;html=1;fillColor=#d5e8d4;strokeColor=#82b366;" parent="yNGvCTk1V_gINGqABnyL-1" vertex="1">
            <mxGeometry x="10" y="80" width="120" height="60" as="geometry" />
          </mxCell>
        </object>
        <mxCell id="ueY2YAWh7VIx71RtlcES-2" value="Revisar el link que me mando Camilo Machado" style="rounded=1;whiteSpace=wrap;html=1;fillColor=#d5e8d4;strokeColor=#82b366;" parent="yNGvCTk1V_gINGqABnyL-1" vertex="1">
          <mxGeometry x="10" y="430" width="120" height="60" as="geometry" />
        </mxCell>
        <mxCell id="H3Q4ioqLagcHq7i6xyze-0" value="Esta Reunión con Claudia no se dio" style="rounded=1;whiteSpace=wrap;html=1;fillColor=#e51400;fontColor=#ffffff;strokeColor=#B20000;" parent="yNGvCTk1V_gINGqABnyL-1" vertex="1">
          <mxGeometry x="210" y="670" width="120" height="60" as="geometry" />
        </mxCell>
        <mxCell id="H3Q4ioqLagcHq7i6xyze-4" value="" style="edgeStyle=orthogonalEdgeStyle;rounded=0;orthogonalLoop=1;jettySize=auto;html=1;" parent="yNGvCTk1V_gINGqABnyL-1" source="H3Q4ioqLagcHq7i6xyze-2" target="H3Q4ioqLagcHq7i6xyze-3" edge="1">
          <mxGeometry relative="1" as="geometry" />
        </mxCell>
        <mxCell id="H3Q4ioqLagcHq7i6xyze-2" value="Definir como será la presentación de mañana" style="rounded=1;whiteSpace=wrap;html=1;fillColor=#f8cecc;strokeColor=#b85450;" parent="yNGvCTk1V_gINGqABnyL-1" vertex="1">
          <mxGeometry x="10" y="510" width="120" height="60" as="geometry" />
        </mxCell>
        <mxCell id="H3Q4ioqLagcHq7i6xyze-3" value="Esta tarea debe quedar lista" style="rounded=1;whiteSpace=wrap;html=1;fillColor=#f8cecc;strokeColor=#b85450;" parent="yNGvCTk1V_gINGqABnyL-1" vertex="1">
          <mxGeometry x="210" y="510" width="120" height="60" as="geometry" />
        </mxCell>
        <object label="Atender licencias lucid" Nota="Tiene una reunion que la contacte a las 11" id="H3Q4ioqLagcHq7i6xyze-5">
          <mxCell style="rounded=1;whiteSpace=wrap;html=1;fillColor=#d5e8d4;strokeColor=#82b366;" parent="yNGvCTk1V_gINGqABnyL-1" vertex="1">
            <mxGeometry x="10" y="150" width="120" height="60" as="geometry" />
          </mxCell>
        </object>
        <object label="Solicitar nuevas licencias lucidchart" Nota="Tiene una reunion que la contacte a las 11" id="H3Q4ioqLagcHq7i6xyze-6">
          <mxCell style="rounded=1;whiteSpace=wrap;html=1;fillColor=#d5e8d4;strokeColor=#82b366;" parent="yNGvCTk1V_gINGqABnyL-1" vertex="1">
            <mxGeometry x="10" y="220" width="120" height="60" as="geometry" />
          </mxCell>
        </object>
        <mxCell id="H3Q4ioqLagcHq7i6xyze-8" value="Revisar el tema de software de negocio con Johnathan" style="rounded=1;whiteSpace=wrap;html=1;fillColor=#f8cecc;strokeColor=#b85450;" parent="yNGvCTk1V_gINGqABnyL-1" vertex="1">
          <mxGeometry x="210" y="430" width="120" height="60" as="geometry" />
        </mxCell>
        <mxCell id="EwWLb1CdJLh-gql79gUk-2" value="" style="edgeStyle=orthogonalEdgeStyle;rounded=0;orthogonalLoop=1;jettySize=auto;html=1;" parent="yNGvCTk1V_gINGqABnyL-1" source="EwWLb1CdJLh-gql79gUk-0" target="EwWLb1CdJLh-gql79gUk-1" edge="1">
          <mxGeometry relative="1" as="geometry" />
        </mxCell>
        <mxCell id="EwWLb1CdJLh-gql79gUk-0" value="Citar a ciberseguridad tema SAAS evaluar antes de llegar a abastecimiento" style="rounded=1;whiteSpace=wrap;html=1;fillColor=#d5e8d4;strokeColor=#82b366;" parent="yNGvCTk1V_gINGqABnyL-1" vertex="1">
          <mxGeometry x="10" y="290" width="120" height="60" as="geometry" />
        </mxCell>
        <mxCell id="EwWLb1CdJLh-gql79gUk-1" value="Castillo, Alejandro&lt;br/&gt;Escobar Suceba, Andres David&lt;br/&gt;Giraldo Jimenez, Daniela&lt;br/&gt;Garcia Acevedo, Alejandro&lt;br/&gt;Lancheros Alvarez, Mauricio Andres" style="rounded=1;whiteSpace=wrap;html=1;fillColor=#d5e8d4;strokeColor=#82b366;" parent="yNGvCTk1V_gINGqABnyL-1" vertex="1">
          <mxGeometry x="210" y="250" width="120" height="140" as="geometry" />
        </mxCell>
        <mxCell id="fKjx0vlUGkV_8uRxMCtp-2" value="" style="edgeStyle=orthogonalEdgeStyle;rounded=0;orthogonalLoop=1;jettySize=auto;html=1;" edge="1" parent="yNGvCTk1V_gINGqABnyL-1" source="fKjx0vlUGkV_8uRxMCtp-0" target="fKjx0vlUGkV_8uRxMCtp-1">
          <mxGeometry relative="1" as="geometry" />
        </mxCell>
        <mxCell id="fKjx0vlUGkV_8uRxMCtp-5" style="edgeStyle=orthogonalEdgeStyle;rounded=0;orthogonalLoop=1;jettySize=auto;html=1;entryX=0;entryY=0.5;entryDx=0;entryDy=0;" edge="1" parent="yNGvCTk1V_gINGqABnyL-1" source="fKjx0vlUGkV_8uRxMCtp-0" target="fKjx0vlUGkV_8uRxMCtp-4">
          <mxGeometry relative="1" as="geometry" />
        </mxCell>
        <mxCell id="fKjx0vlUGkV_8uRxMCtp-0" value="Lideres envien informacion de lucidchart" style="rounded=1;whiteSpace=wrap;html=1;fillColor=#f8cecc;strokeColor=#b85450;" vertex="1" parent="yNGvCTk1V_gINGqABnyL-1">
          <mxGeometry x="370" y="390" width="120" height="60" as="geometry" />
        </mxCell>
        <mxCell id="fKjx0vlUGkV_8uRxMCtp-1" value="Descargar documento usuarios lucidchart" style="rounded=1;whiteSpace=wrap;html=1;fillColor=#d5e8d4;strokeColor=#82b366;" vertex="1" parent="yNGvCTk1V_gINGqABnyL-1">
          <mxGeometry x="570" y="390" width="120" height="60" as="geometry" />
        </mxCell>
        <mxCell id="fKjx0vlUGkV_8uRxMCtp-4" value="Notificar a jefes" style="rounded=1;whiteSpace=wrap;html=1;fillColor=#d5e8d4;strokeColor=#82b366;" vertex="1" parent="yNGvCTk1V_gINGqABnyL-1">
          <mxGeometry x="570" y="460" width="120" height="60" as="geometry" />
        </mxCell>
        <mxCell id="fKjx0vlUGkV_8uRxMCtp-6" value="Definir grupos de lucidchart con genaro" style="rounded=1;whiteSpace=wrap;html=1;fillColor=#f8cecc;strokeColor=#b85450;" vertex="1" parent="yNGvCTk1V_gINGqABnyL-1">
          <mxGeometry x="370" y="470" width="120" height="60" as="geometry" />
        </mxCell>
        <mxCell id="fKjx0vlUGkV_8uRxMCtp-7" value="Identificar ingrso a lucid con office 365" style="rounded=1;whiteSpace=wrap;html=1;fillColor=#f8cecc;strokeColor=#b85450;" vertex="1" parent="yNGvCTk1V_gINGqABnyL-1">
          <mxGeometry x="370" y="554.5" width="120" height="60" as="geometry" />
        </mxCell>
        <mxCell id="fKjx0vlUGkV_8uRxMCtp-12" style="edgeStyle=orthogonalEdgeStyle;rounded=0;orthogonalLoop=1;jettySize=auto;html=1;entryX=0;entryY=0.5;entryDx=0;entryDy=0;" edge="1" parent="yNGvCTk1V_gINGqABnyL-1" source="fKjx0vlUGkV_8uRxMCtp-8" target="fKjx0vlUGkV_8uRxMCtp-11">
          <mxGeometry relative="1" as="geometry" />
        </mxCell>
        <mxCell id="fKjx0vlUGkV_8uRxMCtp-8" value="Definir grupos de lucidchart con genaro" style="rounded=1;whiteSpace=wrap;html=1;fillColor=#f8cecc;strokeColor=#b85450;" vertex="1" parent="yNGvCTk1V_gINGqABnyL-1">
          <mxGeometry x="570" y="590" width="120" height="60" as="geometry" />
        </mxCell>
        <mxCell id="fKjx0vlUGkV_8uRxMCtp-11" value="Juan Diego Botero Pareja 	Juan.Botero@bancolombia.com&#xa; Juan Esteban Agudelo Hincapie 	juesagud@bancolombia.com.co&#xa; Manuel Damian Guerra Farias 	mdguerra@bancolombia.com.co&#xa; Pablo Andres Jimenez Marquez 	paajimen@bancolombia.com.co&#xa; Ruben Dario Giraldo Marin 	rdgirald@bancolombia.com.co&#xa; Saray Sofia Giacometto Pinedo 	sgiacome@bancolombia.com.co" style="text;whiteSpace=wrap;html=1;" vertex="1" parent="yNGvCTk1V_gINGqABnyL-1">
          <mxGeometry x="800" y="570" width="370" height="100" as="geometry" />
        </mxCell>
      </root>
    </mxGraphModel>
  </diagram>
  <diagram id="iwBiy9MiS204H7XOQMqi" name="Page-2">
    <mxGraphModel dx="1929" dy="1694" grid="1" gridSize="10" guides="1" tooltips="1" connect="1" arrows="1" fold="1" page="1" pageScale="1" pageWidth="827" pageHeight="1169" math="0" shadow="0">
      <root>
        <mxCell id="Z_Bg-XkDaSZISsN3nbJj-0" />
        <mxCell id="Z_Bg-XkDaSZISsN3nbJj-1" parent="Z_Bg-XkDaSZISsN3nbJj-0" />
        <mxCell id="Z_Bg-XkDaSZISsN3nbJj-14" value="" style="rounded=1;whiteSpace=wrap;html=1;" vertex="1" parent="Z_Bg-XkDaSZISsN3nbJj-1">
          <mxGeometry x="80" y="-30" width="400" height="230" as="geometry" />
        </mxCell>
        <mxCell id="Z_Bg-XkDaSZISsN3nbJj-26" style="edgeStyle=orthogonalEdgeStyle;rounded=0;orthogonalLoop=1;jettySize=auto;html=1;exitX=0;exitY=0.5;exitDx=0;exitDy=0;" edge="1" parent="Z_Bg-XkDaSZISsN3nbJj-1" source="Z_Bg-XkDaSZISsN3nbJj-23" target="Z_Bg-XkDaSZISsN3nbJj-6">
          <mxGeometry relative="1" as="geometry" />
        </mxCell>
        <mxCell id="Z_Bg-XkDaSZISsN3nbJj-28" style="edgeStyle=orthogonalEdgeStyle;rounded=0;orthogonalLoop=1;jettySize=auto;html=1;exitX=0;exitY=0.75;exitDx=0;exitDy=0;entryX=1;entryY=0.5;entryDx=0;entryDy=0;" edge="1" parent="Z_Bg-XkDaSZISsN3nbJj-1" source="Z_Bg-XkDaSZISsN3nbJj-23" target="Z_Bg-XkDaSZISsN3nbJj-7">
          <mxGeometry relative="1" as="geometry" />
        </mxCell>
        <mxCell id="Z_Bg-XkDaSZISsN3nbJj-23" value="" style="rounded=1;whiteSpace=wrap;html=1;" vertex="1" parent="Z_Bg-XkDaSZISsN3nbJj-1">
          <mxGeometry x="310" y="-9" width="160" height="160" as="geometry" />
        </mxCell>
        <mxCell id="Z_Bg-XkDaSZISsN3nbJj-16" style="edgeStyle=orthogonalEdgeStyle;rounded=0;orthogonalLoop=1;jettySize=auto;html=1;entryX=0;entryY=0.5;entryDx=0;entryDy=0;" edge="1" parent="Z_Bg-XkDaSZISsN3nbJj-1" source="Z_Bg-XkDaSZISsN3nbJj-14" target="Z_Bg-XkDaSZISsN3nbJj-5">
          <mxGeometry relative="1" as="geometry" />
        </mxCell>
        <mxCell id="Z_Bg-XkDaSZISsN3nbJj-4" value="" style="edgeStyle=orthogonalEdgeStyle;rounded=0;orthogonalLoop=1;jettySize=auto;html=1;" edge="1" parent="Z_Bg-XkDaSZISsN3nbJj-1" source="Z_Bg-XkDaSZISsN3nbJj-2" target="Z_Bg-XkDaSZISsN3nbJj-3">
          <mxGeometry relative="1" as="geometry" />
        </mxCell>
        <mxCell id="Z_Bg-XkDaSZISsN3nbJj-2" value="Gestion de desarrollo ti" style="rounded=1;whiteSpace=wrap;html=1;" vertex="1" parent="Z_Bg-XkDaSZISsN3nbJj-1">
          <mxGeometry x="80" y="290" width="160" height="30" as="geometry" />
        </mxCell>
        <mxCell id="Z_Bg-XkDaSZISsN3nbJj-40" style="edgeStyle=orthogonalEdgeStyle;rounded=0;orthogonalLoop=1;jettySize=auto;html=1;" edge="1" parent="Z_Bg-XkDaSZISsN3nbJj-1" source="Z_Bg-XkDaSZISsN3nbJj-3" target="Z_Bg-XkDaSZISsN3nbJj-5">
          <mxGeometry relative="1" as="geometry" />
        </mxCell>
        <mxCell id="Z_Bg-XkDaSZISsN3nbJj-3" value="Formulario - actualizar las reglas aplicaciones de negocio" style="rounded=1;whiteSpace=wrap;html=1;" vertex="1" parent="Z_Bg-XkDaSZISsN3nbJj-1">
          <mxGeometry x="80" y="350" width="160" height="60" as="geometry" />
        </mxCell>
        <mxCell id="Z_Bg-XkDaSZISsN3nbJj-30" value="" style="edgeStyle=orthogonalEdgeStyle;rounded=0;orthogonalLoop=1;jettySize=auto;html=1;" edge="1" parent="Z_Bg-XkDaSZISsN3nbJj-1" source="Z_Bg-XkDaSZISsN3nbJj-5" target="Z_Bg-XkDaSZISsN3nbJj-29">
          <mxGeometry relative="1" as="geometry" />
        </mxCell>
        <mxCell id="Z_Bg-XkDaSZISsN3nbJj-46" value="CRUD" style="edgeStyle=orthogonalEdgeStyle;rounded=0;orthogonalLoop=1;jettySize=auto;html=1;" edge="1" parent="Z_Bg-XkDaSZISsN3nbJj-1" source="Z_Bg-XkDaSZISsN3nbJj-5" target="Z_Bg-XkDaSZISsN3nbJj-44">
          <mxGeometry relative="1" as="geometry" />
        </mxCell>
        <mxCell id="Z_Bg-XkDaSZISsN3nbJj-5" value="CMDB" style="rounded=1;whiteSpace=wrap;html=1;" vertex="1" parent="Z_Bg-XkDaSZISsN3nbJj-1">
          <mxGeometry x="560" y="55" width="120" height="60" as="geometry" />
        </mxCell>
        <mxCell id="Z_Bg-XkDaSZISsN3nbJj-6" value="USM(Pedidos)" style="rounded=1;whiteSpace=wrap;html=1;" vertex="1" parent="Z_Bg-XkDaSZISsN3nbJj-1">
          <mxGeometry x="103" y="20" width="120" height="60" as="geometry" />
        </mxCell>
        <mxCell id="Z_Bg-XkDaSZISsN3nbJj-7" value="USD(OC)" style="rounded=1;whiteSpace=wrap;html=1;" vertex="1" parent="Z_Bg-XkDaSZISsN3nbJj-1">
          <mxGeometry x="103" y="110" width="120" height="60" as="geometry" />
        </mxCell>
        <mxCell id="Z_Bg-XkDaSZISsN3nbJj-34" style="edgeStyle=orthogonalEdgeStyle;rounded=0;orthogonalLoop=1;jettySize=auto;html=1;entryX=0;entryY=0.5;entryDx=0;entryDy=0;" edge="1" parent="Z_Bg-XkDaSZISsN3nbJj-1" source="Z_Bg-XkDaSZISsN3nbJj-9" target="Z_Bg-XkDaSZISsN3nbJj-14">
          <mxGeometry relative="1" as="geometry" />
        </mxCell>
        <mxCell id="Z_Bg-XkDaSZISsN3nbJj-9" value="" style="sketch=0;outlineConnect=0;fontColor=#232F3E;gradientColor=none;fillColor=#232F3E;strokeColor=none;dashed=0;verticalLabelPosition=bottom;verticalAlign=top;align=center;html=1;fontSize=12;fontStyle=0;aspect=fixed;pointerEvents=1;shape=mxgraph.aws4.user;" vertex="1" parent="Z_Bg-XkDaSZISsN3nbJj-1">
          <mxGeometry x="-60" y="46" width="78" height="78" as="geometry" />
        </mxCell>
        <mxCell id="Z_Bg-XkDaSZISsN3nbJj-19" value="Oferta" style="rounded=1;whiteSpace=wrap;html=1;" vertex="1" parent="Z_Bg-XkDaSZISsN3nbJj-1">
          <mxGeometry x="330" y="10" width="120" height="60" as="geometry" />
        </mxCell>
        <mxCell id="Z_Bg-XkDaSZISsN3nbJj-24" value="Oferta" style="rounded=1;whiteSpace=wrap;html=1;" vertex="1" parent="Z_Bg-XkDaSZISsN3nbJj-1">
          <mxGeometry x="330" y="80" width="120" height="60" as="geometry" />
        </mxCell>
        <mxCell id="Z_Bg-XkDaSZISsN3nbJj-33" value="" style="edgeStyle=orthogonalEdgeStyle;rounded=0;orthogonalLoop=1;jettySize=auto;html=1;" edge="1" parent="Z_Bg-XkDaSZISsN3nbJj-1" source="Z_Bg-XkDaSZISsN3nbJj-29" target="Z_Bg-XkDaSZISsN3nbJj-32">
          <mxGeometry relative="1" as="geometry" />
        </mxCell>
        <mxCell id="Z_Bg-XkDaSZISsN3nbJj-39" value="" style="edgeStyle=orthogonalEdgeStyle;rounded=0;orthogonalLoop=1;jettySize=auto;html=1;" edge="1" parent="Z_Bg-XkDaSZISsN3nbJj-1" source="Z_Bg-XkDaSZISsN3nbJj-29" target="Z_Bg-XkDaSZISsN3nbJj-38">
          <mxGeometry relative="1" as="geometry" />
        </mxCell>
        <mxCell id="Z_Bg-XkDaSZISsN3nbJj-29" value="MAC" style="rounded=1;whiteSpace=wrap;html=1;" vertex="1" parent="Z_Bg-XkDaSZISsN3nbJj-1">
          <mxGeometry x="760" y="55" width="120" height="60" as="geometry" />
        </mxCell>
        <mxCell id="Z_Bg-XkDaSZISsN3nbJj-32" value="Abstracción" style="rounded=1;whiteSpace=wrap;html=1;" vertex="1" parent="Z_Bg-XkDaSZISsN3nbJj-1">
          <mxGeometry x="920" y="55" width="120" height="60" as="geometry" />
        </mxCell>
        <mxCell id="Z_Bg-XkDaSZISsN3nbJj-38" value="&lt;div&gt;Aplicación&lt;/div&gt;&lt;div&gt;Componentes Técnicos&lt;/div&gt;&lt;div&gt;Flujos&lt;/div&gt;&lt;div&gt;EUC&lt;/div&gt;&lt;div&gt;Módulo&lt;/div&gt;&lt;div&gt;Servicio WEB&lt;/div&gt;&lt;div&gt;APIs&lt;/div&gt;&lt;div&gt;Servicio de Terceros&lt;/div&gt;&lt;div&gt;Plataforma&lt;/div&gt;&lt;div&gt;Interface&lt;/div&gt;" style="rounded=1;whiteSpace=wrap;html=1;" vertex="1" parent="Z_Bg-XkDaSZISsN3nbJj-1">
          <mxGeometry x="735" y="182.5" width="170" height="167.5" as="geometry" />
        </mxCell>
        <mxCell id="Z_Bg-XkDaSZISsN3nbJj-45" value="" style="edgeStyle=orthogonalEdgeStyle;rounded=0;orthogonalLoop=1;jettySize=auto;html=1;" edge="1" parent="Z_Bg-XkDaSZISsN3nbJj-1" source="Z_Bg-XkDaSZISsN3nbJj-42" target="Z_Bg-XkDaSZISsN3nbJj-44">
          <mxGeometry relative="1" as="geometry" />
        </mxCell>
        <mxCell id="Z_Bg-XkDaSZISsN3nbJj-42" value="Diego Leon Gamboa" style="rounded=1;whiteSpace=wrap;html=1;fillColor=#d5e8d4;strokeColor=#82b366;" vertex="1" parent="Z_Bg-XkDaSZISsN3nbJj-1">
          <mxGeometry x="560" y="-200" width="120" height="60" as="geometry" />
        </mxCell>
        <mxCell id="Z_Bg-XkDaSZISsN3nbJj-44" value="Alejandro AKLI" style="rounded=1;whiteSpace=wrap;html=1;fillColor=#fff2cc;strokeColor=#d6b656;" vertex="1" parent="Z_Bg-XkDaSZISsN3nbJj-1">
          <mxGeometry x="560" y="-100" width="120" height="60" as="geometry" />
        </mxCell>
      </root>
    </mxGraphModel>
  </diagram>
</mxfile>
